<!-- Generator: Adobe Illustrator 21.1.0, SVG Export Plug-In  -->
<svg version="1.1"
	 xmlns="http://www.w3.org/2000/svg" xmlns:xlink="http://www.w3.org/1999/xlink" xmlns:a="http://ns.adobe.com/AdobeSVGViewerExtensions/3.0/"
	 x="0px" y="0px" width="239.6px" height="239.6px" viewBox="0 0 239.6 239.6" style="enable-background:new 0 0 239.6 239.6;"
	 xml:space="preserve">
<style type="text/css">
	.st0{fill:#FFFFFF;stroke:#114A62;stroke-width:4;stroke-miterlimit:10;}
	.st1{fill:#114A62;}
</style>
<defs>
</defs>
<circle class="st0" cx="119.8" cy="119.8" r="117.8"/>
<g>
	<circle class="st1" cx="66.4" cy="100.2" r="6.3"/>
	<circle class="st1" cx="85.2" cy="100.2" r="6.3"/>
	<circle class="st1" cx="104" cy="100.2" r="6.3"/>
	<circle class="st1" cx="122.8" cy="100.2" r="6.3"/>
	<circle class="st1" cx="141.6" cy="100.2" r="6.3"/>
	<circle class="st1" cx="66.4" cy="120.7" r="6.3"/>
	<circle class="st1" cx="85.2" cy="120.7" r="6.3"/>
	<circle class="st1" cx="104" cy="120.7" r="6.3"/>
	<circle class="st1" cx="122.8" cy="120.7" r="6.3"/>
	<circle class="st1" cx="141.6" cy="120.7" r="6.3"/>
	<circle class="st1" cx="66.4" cy="139.4" r="6.3"/>
	<circle class="st1" cx="85.2" cy="139.4" r="6.3"/>
	<circle class="st1" cx="104" cy="139.4" r="6.3"/>
	<circle class="st1" cx="122.8" cy="139.4" r="6.3"/>
	<circle class="st1" cx="141.6" cy="139.4" r="6.3"/>
	<g>
		<circle class="st1" cx="160.4" cy="100.2" r="6.3"/>
		<circle class="st1" cx="179.2" cy="100.2" r="6.3"/>
		<circle class="st1" cx="160.4" cy="120.7" r="6.3"/>
		<circle class="st1" cx="179.2" cy="120.7" r="6.3"/>
		<circle class="st1" cx="160.4" cy="139.4" r="6.3"/>
		<circle class="st1" cx="179.2" cy="139.4" r="6.3"/>
	</g>
</g>
</svg>
