<!-- Generator: Adobe Illustrator 21.1.0, SVG Export Plug-In  -->
<svg version="1.1"
	 xmlns="http://www.w3.org/2000/svg" xmlns:xlink="http://www.w3.org/1999/xlink" xmlns:a="http://ns.adobe.com/AdobeSVGViewerExtensions/3.0/"
	 x="0px" y="0px" width="85.2px" height="73.3px" viewBox="0 0 85.2 73.3" style="enable-background:new 0 0 85.2 73.3;"
	 xml:space="preserve">
<style type="text/css">
	.st0{opacity:0.2;}
	.st1{fill:#114A62;stroke:#FFFFFF;stroke-width:3;stroke-miterlimit:10;}
	.st2{fill:none;stroke:#FFFFFF;stroke-width:3;stroke-miterlimit:10;}
	.st3{fill:#FFFFFF;}
</style>
<defs>
</defs>
<g>
	<path class="st0" d="M72.7,73.3H17c-6.9,0-12.5-5.6-12.5-12.5V18c0-6.9,5.6-12.5,12.5-12.5h55.8c6.9,0,12.5,5.6,12.5,12.5v42.8
		C85.2,67.7,79.6,73.3,72.7,73.3z"/>
	<path class="st1" d="M69.7,69.3H14c-6.9,0-12.5-5.6-12.5-12.5V14C1.5,7.1,7.1,1.5,14,1.5h55.8c6.9,0,12.5,5.6,12.5,12.5v42.8
		C82.2,63.7,76.6,69.3,69.7,69.3z"/>
	<g>
		<g>
			<path class="st2" d="M25.5,24.9C22,35.8,25,47.5,32.7,53.8"/>
			<g>
				<polygon class="st3" points="16.1,22.9 32.7,12.9 33.1,32.4 				"/>
			</g>
		</g>
	</g>
	<g>
		<g>
			<path class="st2" d="M57.3,41.8C60.8,31,57.8,19.3,50,12.9"/>
			<g>
				<polygon class="st3" points="66.7,43.8 50,53.8 49.7,34.4 				"/>
			</g>
		</g>
	</g>
</g>
</svg>
