<!-- Generator: Adobe Illustrator 21.1.0, SVG Export Plug-In  -->
<svg version="1.1"
	 xmlns="http://www.w3.org/2000/svg" xmlns:xlink="http://www.w3.org/1999/xlink" xmlns:a="http://ns.adobe.com/AdobeSVGViewerExtensions/3.0/"
	 x="0px" y="0px" width="1250px" height="937px" viewBox="0 0 1250 937" style="enable-background:new 0 0 1250 937;"
	 xml:space="preserve">
<style type="text/css">
	.st0{fill:#EEEDEE;}
	.st1{fill:#F6F5F6;}
	.st2{fill:#9DC23C;}
	.st3{fill:#00B5CC;}
	.st4{fill:#F59E20;}
	.st5{fill:#010101;}
	.st6{fill:#D3D3D3;}
	.st7{fill:#3FC6EE;}
	.st8{fill:#989A9B;}
	.st9{fill:#EDEDEE;}
	.st10{fill:#383938;}
	.st11{font-family:'OpenSans';}
	.st12{font-size:16px;}
</style>
<defs>
</defs>
<g>
	<rect x="0" class="st0" width="1250" height="27"/>
	<rect y="879" class="st1" width="1250" height="58"/>
	<g>
		<path class="st2" d="M16.6,18.9c0,0.4,0.3,0.9,0.8,1l5.6,1.8c0.4,0.1,0.8-0.1,0.8-0.6v-8.6c0-0.4-0.3-0.9-0.8-1l-5.6-1.8
			c-0.4-0.1-0.8,0.1-0.8,0.6V18.9z"/>
		<path class="st3" d="M25.5,11.4c-0.4,0.1-0.8,0.6-0.8,1v8.6c0,0.4,0.3,0.7,0.8,0.6l5.6-1.8c0.4-0.1,0.8-0.6,0.8-1v-8.6
			c0-0.4-0.3-0.7-0.8-0.6L25.5,11.4z"/>
		<path class="st4" d="M25,6.3c-0.4-0.1-1.1-0.1-1.5,0l-6,2c-0.4,0.1-0.4,0.4,0,0.5l6,1.9c0.4,0.1,1.1,0.1,1.5,0l6-1.9
			c0.4-0.1,0.4-0.4,0-0.5L25,6.3z"/>
		<path class="st5" d="M87.4,21.7c-0.1,0.2-0.3,0.4-0.5,0.5c-0.2,0.1-0.4,0.1-0.7,0.1c-0.1,0-0.3,0-0.4-0.1c-0.1,0-0.3-0.1-0.4-0.1
			c-0.3,0-0.6,0.1-0.8,0.2c-0.2,0.2-0.3,0.4-0.3,0.7c0,0.4,0.2,0.7,0.6,0.9c0.4,0.2,0.9,0.2,1.7,0.2c0.8,0,1.4-0.1,1.8-0.4
			c0.4-0.2,0.8-0.6,1.1-1c0.3-0.4,0.6-1,0.8-1.8l3.3-8.7c0.1-0.2,0.1-0.4,0.2-0.7c0.1-0.2,0.1-0.4,0.1-0.5c0-0.2,0-0.4-0.1-0.5
			c-0.1-0.2-0.2-0.3-0.4-0.4c-0.2-0.1-0.4-0.2-0.6-0.2c-0.3,0-0.5,0-0.6,0.1c-0.1,0.1-0.3,0.3-0.4,0.5c-0.1,0.3-0.3,0.6-0.4,1.1
			l-2,5.8l-2.2-6.3c-0.1-0.4-0.3-0.8-0.5-1c-0.2-0.2-0.5-0.3-0.8-0.3c-0.2,0-0.4,0.1-0.6,0.2c-0.2,0.1-0.4,0.3-0.5,0.4
			c-0.1,0.2-0.2,0.4-0.2,0.6c0,0.2,0.1,0.5,0.3,1l3.1,7.9l-0.2,0.6C87.7,21.2,87.5,21.5,87.4,21.7 M77.1,13.5
			c0.2-0.5,0.5-0.9,0.9-1.1c0.4-0.3,0.8-0.4,1.2-0.4c0.4,0,0.9,0.1,1.2,0.4c0.4,0.3,0.7,0.6,0.9,1.1c0.2,0.5,0.3,1.1,0.3,1.7
			c0,0.7-0.1,1.3-0.3,1.8c-0.2,0.5-0.5,0.8-0.9,1.1c-0.4,0.2-0.8,0.3-1.2,0.3c-0.4,0-0.8-0.1-1.2-0.4c-0.4-0.2-0.7-0.6-0.9-1.1
			c-0.2-0.5-0.3-1.1-0.3-1.8C76.8,14.6,76.9,14,77.1,13.5 M82.2,20.1c0.2,0.3,0.5,0.4,0.9,0.4c0.4,0,0.6-0.1,0.9-0.4
			c0.2-0.2,0.3-0.6,0.3-1.1V7.8c0-0.5-0.1-0.8-0.3-1.1c-0.2-0.2-0.5-0.4-0.9-0.4c-0.4,0-0.7,0.1-0.9,0.4c-0.2,0.3-0.3,0.7-0.3,1.2
			v3.8c-0.5-0.5-1-0.9-1.5-1.2c-0.5-0.3-1.1-0.4-1.9-0.4c-1.3,0-2.3,0.4-3.1,1.3c-0.8,0.9-1.2,2.1-1.2,3.7c0,0.8,0.1,1.5,0.3,2.1
			c0.2,0.6,0.5,1.2,0.9,1.7c0.4,0.5,0.8,0.8,1.3,1.1c0.5,0.3,1.1,0.4,1.7,0.4c0.5,0,0.9-0.1,1.3-0.2c0.4-0.1,0.7-0.3,1.1-0.6
			c0.3-0.2,0.7-0.6,1-1V19C81.8,19.4,82,19.8,82.2,20.1 M71.3,15.7c0,0.9-0.1,1.5-0.3,1.9c-0.2,0.3-0.5,0.6-0.9,0.9
			c-0.4,0.2-0.9,0.3-1.4,0.3c-0.5,0-0.9-0.1-1.1-0.4c-0.3-0.3-0.4-0.6-0.4-1c0-0.4,0.1-0.7,0.4-0.9c0.2-0.2,0.5-0.3,0.8-0.4
			c0.3-0.1,0.8-0.2,1.5-0.3c0.7-0.2,1.3-0.3,1.6-0.4V15.7z M72.3,20.1c0.3,0.2,0.5,0.4,0.8,0.4c0.3,0,0.6-0.1,0.8-0.3
			c0.2-0.2,0.4-0.5,0.4-0.7c0-0.1-0.1-0.5-0.2-1c-0.2-0.5-0.2-1-0.2-1.5c0-0.5,0-1,0-1.4c0-0.4,0-0.9,0-1.5c0-0.9-0.1-1.7-0.4-2.3
			c-0.3-0.6-0.7-1-1.4-1.3c-0.6-0.3-1.5-0.4-2.6-0.4c-1,0-1.8,0.1-2.5,0.4c-0.7,0.3-1.2,0.6-1.5,1c-0.3,0.4-0.5,0.9-0.5,1.3
			c0,0.3,0.1,0.5,0.3,0.7c0.2,0.2,0.5,0.3,0.7,0.3c0.3,0,0.5-0.1,0.6-0.2c0.1-0.1,0.3-0.4,0.5-0.7c0.2-0.4,0.5-0.6,0.8-0.8
			c0.3-0.2,0.8-0.3,1.5-0.3c0.8,0,1.2,0.2,1.5,0.5c0.2,0.3,0.4,0.8,0.4,1.5c-0.5,0.2-1,0.3-1.5,0.4c-0.5,0.1-1,0.2-1.6,0.4
			c-0.6,0.1-1,0.2-1.2,0.3c-0.8,0.2-1.4,0.5-1.8,1c-0.4,0.5-0.7,1.1-0.7,1.8c0,0.5,0.1,1,0.4,1.4c0.3,0.4,0.6,0.8,1.1,1
			c0.5,0.3,1.1,0.4,1.7,0.4c0.7,0,1.4-0.1,1.9-0.4c0.6-0.2,1.2-0.6,1.8-1.1C71.7,19.5,72,19.8,72.3,20.1 M57.9,12.5
			c0.4-0.4,0.9-0.7,1.6-0.7c0.7,0,1.2,0.2,1.6,0.6c0.4,0.4,0.6,1.1,0.7,2h-4.6C57.2,13.6,57.5,12.9,57.9,12.5 M63.6,15.6
			c0.4-0.2,0.6-0.6,0.6-1.2c0-0.7-0.2-1.4-0.5-2c-0.4-0.7-0.9-1.2-1.6-1.6c-0.7-0.4-1.6-0.6-2.6-0.6c-0.8,0-1.5,0.1-2.1,0.4
			c-0.6,0.2-1.2,0.6-1.6,1.1c-0.4,0.5-0.8,1-1,1.7c-0.2,0.6-0.3,1.3-0.3,2.1c0,1.6,0.5,2.9,1.4,3.8c0.9,0.9,2.2,1.4,3.8,1.4
			c0.7,0,1.3-0.1,1.9-0.3c0.5-0.2,1-0.4,1.4-0.7c0.4-0.3,0.6-0.6,0.8-0.9C64,18.3,64,18,64,17.8c0-0.3-0.1-0.5-0.2-0.6
			c-0.2-0.1-0.4-0.2-0.6-0.2c-0.2,0-0.4,0.1-0.6,0.2c-0.3,0.3-0.6,0.5-0.8,0.7c-0.2,0.2-0.4,0.3-0.7,0.5c-0.2,0.2-0.5,0.3-0.7,0.3
			c-0.3,0.1-0.5,0.1-0.8,0.1c-0.5,0-0.9-0.1-1.2-0.3c-0.4-0.2-0.7-0.6-0.9-1c-0.2-0.4-0.3-1-0.3-1.5h5
			C62.8,15.9,63.3,15.8,63.6,15.6 M51,8.8c0.3,0.1,0.6,0.4,0.8,0.6c0.2,0.3,0.3,0.6,0.3,1c0,0.5-0.1,0.9-0.4,1.1
			c-0.2,0.3-0.6,0.5-1,0.6c-0.5,0.1-1,0.2-1.7,0.2h-2.5V8.6h2.6C50.1,8.6,50.7,8.7,51,8.8 M48.8,14.6c0.3,0.1,0.6,0.4,1,0.7
			c0.3,0.4,0.7,0.9,1.1,1.5l1.1,1.8c0.3,0.4,0.5,0.8,0.6,1c0.2,0.2,0.3,0.4,0.5,0.6c0.2,0.1,0.5,0.2,0.8,0.2c0.3,0,0.5-0.1,0.7-0.2
			c0.2-0.1,0.4-0.2,0.5-0.4c0.1-0.2,0.2-0.4,0.2-0.5c0-0.2-0.1-0.5-0.3-1c-0.2-0.5-0.5-1-0.8-1.6c-0.4-0.6-0.7-1.1-1.2-1.6
			c-0.4-0.5-0.9-0.9-1.4-1.2c1.2-0.3,2-0.7,2.6-1.3c0.6-0.6,0.9-1.4,0.9-2.4c0-0.5-0.1-1-0.3-1.4c-0.2-0.4-0.4-0.8-0.7-1.2
			c-0.3-0.3-0.7-0.6-1.1-0.8c-0.4-0.2-0.8-0.3-1.2-0.3c-0.4-0.1-1-0.1-1.6-0.1h-4.5c-0.6,0-1,0.1-1.3,0.4c-0.3,0.3-0.4,0.7-0.4,1.3
			v10.5c0,0.6,0.1,1,0.4,1.3c0.2,0.3,0.6,0.4,1,0.4c0.4,0,0.7-0.1,1-0.4c0.3-0.3,0.4-0.7,0.4-1.3v-4.4h1
			C48,14.4,48.4,14.4,48.8,14.6 M43,16.1c0.2-0.2,0.3-0.5,0.3-0.8c0-0.3-0.1-0.6-0.3-0.8c-0.2-0.2-0.6-0.3-1-0.3H39
			c-0.5,0-0.8,0.1-1,0.3c-0.2,0.2-0.3,0.5-0.3,0.8c0,0.3,0.1,0.6,0.3,0.8c0.2,0.2,0.6,0.3,1,0.3H42C42.4,16.4,42.8,16.3,43,16.1
			 M36.6,8.6C36.8,8.4,37,8.1,37,7.7c0-0.4-0.1-0.7-0.4-0.9c-0.3-0.2-0.5-0.3-0.9-0.3c-0.3,0-0.6,0.1-0.9,0.3
			c-0.3,0.2-0.4,0.5-0.4,0.9c0,0.4,0.1,0.7,0.4,0.9c0.3,0.2,0.6,0.3,0.9,0.3C36,8.9,36.3,8.8,36.6,8.6 M36.6,10.5
			c-0.2-0.3-0.5-0.4-0.9-0.4c-0.4,0-0.7,0.1-0.9,0.4c-0.2,0.3-0.3,0.6-0.3,1.1v7.3c0,0.5,0.1,0.9,0.3,1.1c0.2,0.3,0.5,0.4,0.9,0.4
			c0.4,0,0.7-0.1,0.9-0.4c0.2-0.3,0.4-0.6,0.4-1.2v-7.4C37,11.1,36.8,10.7,36.6,10.5"/>
	</g>
	<path class="st6" d="M905.8,916.7h-562c-4.9,0-9-4-9-9v0c0-4.9,4.1-9,9-9h562c5,0,9,4.1,9,9v0C914.8,912.7,910.8,916.7,905.8,916.7
		z"/>
	<path class="st7" d="M493.4,899.1H343.8c-5,0-9,4-9,9s4,9,9,9h149.6V899.1z"/>
	<rect x="678.6" y="896.1" class="st1" width="4" height="24"/>
	<rect x="498.1" y="898.7" class="st7" width="136.3" height="18"/>
	<g>
		<circle class="st8" cx="197.8" cy="908.2" r="20"/>
		<g>
			<path class="st9" d="M197.5,908.2c0,2.9,0,5.8,0,8.7c0,0.6-0.1,1.2-0.7,1.6c-0.6,0.5-1.5,0.4-2.1-0.1c-0.8-0.6-1.5-1.4-2.3-2
				c-0.8-0.7-1.7-1.3-2.6-2c-0.5-0.4-1.2-0.5-1.9-0.5c-0.9,0-1.7,0-2.6,0c-0.4,0-0.6-0.1-0.8-0.4c-0.5-0.7-0.7-1.5-0.8-2.3
				c-0.4-2.2-0.4-4.4,0.2-6.6c0.1-0.6,0.4-1.1,0.7-1.6c0.2-0.4,0.6-0.6,1-0.5c0.7,0,1.4,0,2.1,0c1.3,0.1,2.4-0.3,3.3-1.1
				c1.2-1,2.4-2,3.6-3.1c0.5-0.4,1-0.7,1.6-0.6c0.9,0.1,1.4,0.7,1.4,1.8C197.5,902.3,197.5,905.3,197.5,908.2z"/>
			<path class="st9" d="M212.2,908.3c0,3.9-1.4,7.2-4.1,10c-0.5,0.5-1,0.7-1.7,0.5c-0.5-0.2-0.9-0.6-0.9-1.2c-0.1-0.5,0.2-1,0.5-1.3
				c1.5-1.6,2.5-3.4,3-5.5c0.7-3.5,0-6.8-2.2-9.6c-0.3-0.4-0.6-0.7-0.9-1.1c-0.5-0.6-0.5-1.5,0-2c0.6-0.6,1.4-0.6,2.1,0
				c1.3,1.3,2.4,2.9,3.1,4.6C211.9,904.5,212.3,906.3,212.2,908.3z"/>
			<path class="st9" d="M206.3,908.2c-0.1,2.5-1,4.7-2.7,6.6c-0.6,0.6-1.4,0.7-2,0.2c-0.6-0.6-0.7-1.4-0.1-2c0.9-1,1.6-2.2,1.8-3.5
				c0.4-2.2-0.3-4.2-1.8-5.8c-0.8-0.8-0.4-2.1,0.7-2.3c0.5-0.1,0.9,0.1,1.3,0.4c1.2,1.2,2,2.7,2.4,4.3
				C206.1,906.7,206.2,907.5,206.3,908.2z"/>
		</g>
	</g>
	<g>
		<circle class="st8" cx="1053.5" cy="908.1" r="20"/>
		<g>
			<path class="st9" d="M1049.3,921.6h-0.7c-1,0-1.8-0.8-1.8-1.8v-23.3c0-1,0.8-1.8,1.8-1.8h0.7c1,0,1.8,0.8,1.8,1.8v23.3
				C1051.2,920.8,1050.3,921.6,1049.3,921.6z"/>
			<path class="st9" d="M1058.3,921.6h-0.7c-1,0-1.8-0.8-1.8-1.8v-23.3c0-1,0.8-1.8,1.8-1.8h0.7c1,0,1.8,0.8,1.8,1.8v23.3
				C1060.2,920.8,1059.3,921.6,1058.3,921.6z"/>
		</g>
	</g>
	<g>
		<polygon class="st6" points="954.5,907.7 930.7,921.5 930.7,893.9 		"/>
		<rect x="952.6" y="893.9" class="st6" width="3.9" height="27.6"/>
	</g>
	<g>
		<polygon class="st8" points="294.5,907.7 318.3,921.5 318.3,893.9 		"/>
		
			<rect x="292.5" y="893.9" transform="matrix(-1 -4.641855e-11 4.641855e-11 -1 588.9047 1815.406)" class="st8" width="3.9" height="27.6"/>
	</g>
	<rect x="493.8" y="896.1" class="st1" width="4" height="24"/>
	<g>
		<circle class="st8" cx="1129.5" cy="908.2" r="20"/>
	</g>
	<g>
		<path class="st9" d="M1137.2,899.2c-0.4-1-1-1.8-1.8-2.4c-0.8-0.6-1.6-1.1-2.6-1.5c-1-0.3-2.1-0.5-3.3-0.5c-1.4,0-2.7,0.2-3.8,0.7
			c-1.1,0.4-2.1,1.1-2.9,1.9c-0.8,0.8-1.4,1.8-1.8,2.9c-0.4,1.1-0.6,2.4-0.6,3.7c0,0,0,0,0,0v0.3c0,0.4,0.3,0.7,0.7,0.7h3
			c0.4,0,0.7-0.3,0.7-0.7V904h0c0-1.7,0.4-3.1,1.1-4.1c0.8-1,1.9-1.5,3.5-1.5c0.3,0,0.7,0.1,1.1,0.2c0.4,0.2,0.8,0.4,1.2,0.7
			c0.4,0.3,0.7,0.8,1,1.3c0.3,0.5,0.4,1.2,0.4,2c0,0.6-0.1,1.2-0.2,1.6c-0.2,0.5-0.4,0.9-0.7,1.2c-0.3,0.4-0.6,0.7-1,1
			c-0.4,0.3-0.8,0.6-1.2,1c-0.5,0.4-0.9,0.9-1.3,1.3c-0.4,0.4-0.7,1-0.9,1.5c-0.3,0.6-0.4,1.3-0.6,2c-0.1,0.8-0.2,1.7-0.2,2.8h0v0.1
			c0,0.4,0.3,0.7,0.7,0.7h2.7c0.4,0,0.7-0.3,0.7-0.7v-0.3c0,0,0,0,0,0c0-0.8,0.1-1.6,0.2-2.2c0.2-0.6,0.4-1.2,0.7-1.7
			c0.3-0.5,0.7-0.9,1.1-1.3c0.4-0.4,0.9-0.8,1.3-1.2c0.4-0.4,0.8-0.7,1.2-1.1c0.4-0.4,0.8-0.8,1.1-1.3c0.3-0.5,0.6-1,0.8-1.7
			c0.2-0.6,0.3-1.4,0.3-2.3C1137.8,901.2,1137.6,900.1,1137.2,899.2z"/>
		<path class="st9" d="M1130.7,918.6h-3.3c-0.4,0-0.7,0.3-0.7,0.7v2.3c0,0.4,0.3,0.7,0.7,0.7h3.3c0.4,0,0.7-0.3,0.7-0.7v-2.3
			C1131.5,918.9,1131.1,918.6,1130.7,918.6z"/>
	</g>
	<text transform="matrix(1 0 0 1 577.0005 20.152)" class="st10 st11 st12">Lesson Name</text>
	<g>
		
			<rect x="1232.7" y="5.5" transform="matrix(0.7071 -0.7071 0.7071 0.7071 351.4299 876.3324)" class="st10" width="1.7" height="16.8"/>
		
			<rect x="1232.7" y="5.5" transform="matrix(0.7071 0.7071 -0.7071 0.7071 371.1621 -868.159)" class="st10" width="1.7" height="16.8"/>
	</g>
</g>
</svg>
