<!-- Generator: Adobe Illustrator 21.1.0, SVG Export Plug-In  -->
<svg version="1.1"
	 xmlns="http://www.w3.org/2000/svg" xmlns:xlink="http://www.w3.org/1999/xlink" xmlns:a="http://ns.adobe.com/AdobeSVGViewerExtensions/3.0/"
	 x="0px" y="0px" width="1250px" height="406px" viewBox="0 0 1250 406" style="enable-background:new 0 0 1250 406;"
	 xml:space="preserve">
<style type="text/css">
	.st0{fill:none;stroke:#114A62;stroke-width:5;stroke-miterlimit:10;}
	.st1{fill:#5393AF;stroke:#114A62;stroke-width:4;stroke-miterlimit:10;}
	.st2{fill:#5393AF;}
	.st3{fill:#5393AF;stroke:#114A62;stroke-width:5;stroke-miterlimit:10;}
</style>
<defs>
</defs>
<g>
	<line class="st0" x1="258.7" y1="403.5" x2="985.3" y2="403.5"/>
	<g>
		<g>
			<line class="st1" x1="1250" y1="227.5" x2="0" y2="227.5"/>
			<line class="st1" x1="1250" y1="178.5" x2="0" y2="178.5"/>
			<rect x="0.3" y="179.5" class="st2" width="1249.7" height="46.9"/>
			<path class="st3" d="M985.3,403.5h126.1c11.9,0,21.6-10.1,21.6-22.7v-89.2h29c11.9,0,21.6-10.1,21.6-22.7V137.3
				c0-12.5-9.7-22.7-21.6-22.7h-29V25.2c0-12.5-9.7-22.7-21.6-22.7H115.4c-11.9,0-21.6,10.1-21.6,22.7v89.5h-5.8
				c-11.9,0-21.6,10.1-21.6,22.7v131.6c0,12.5,9.7,22.7,21.6,22.7h5.8v89.2c0,12.5,9.7,22.7,21.6,22.7h143.3"/>
		</g>
		<line class="st1" x1="596.9" y1="403.5" x2="334.8" y2="403.5"/>
	</g>
	<line class="st1" x1="931.7" y1="403.5" x2="655.5" y2="403.5"/>
</g>
</svg>
